<svg width="66" height="66" viewBox="0 0 66 66" fill="none" xmlns="http://www.w3.org/2000/svg" class="svgFill">
<defs>
    <style type="text/css"><![CDATA[
.svgFill{
    fill: #272727;
}
.svgFill:hover{
    fill: #EB5757;
}
    ]]></style>
  </defs>
<path d="M0 0H66V66H0V0ZM60.5962 50.2631C60.1136 47.2436 58.146 44.7191 52.3359 42.3576C50.3167 41.4129 48.0604 40.7467 47.3942 39.2205C47.1467 38.3171 47.1034 37.8242 47.2643 37.2859C47.6829 35.5018 49.7784 34.9759 51.4326 35.4709C52.5071 35.8029 53.4951 36.6197 54.1179 37.9417C56.9642 36.0834 56.9642 36.0834 58.9421 34.848C58.2017 33.6992 57.8366 33.1939 57.3313 32.7113C55.6009 30.7663 53.2929 29.7784 49.5433 29.865L47.5984 30.1125C45.7401 30.5642 43.9684 31.5521 42.8938 32.8742C39.7671 36.4196 40.6704 42.6071 44.4613 45.1749C48.2109 47.9779 53.6992 48.5904 54.4087 51.2346C55.0646 54.4582 52.0142 55.4895 48.9947 55.1121C46.7713 54.6171 45.5359 53.5013 44.1705 51.4388L39.1421 54.3283C39.7114 55.6504 40.3776 56.2196 41.3655 57.3787C46.1464 62.2029 58.113 61.9554 60.2601 54.6171C60.3343 54.3696 60.9159 52.6721 60.4642 50.0837L60.5962 50.2631ZM35.8896 30.3353H29.7124C29.7124 35.6627 29.6794 40.9592 29.6794 46.299C29.6794 49.6836 29.8506 52.7979 29.304 53.7549C28.3903 55.6462 26.0597 55.4091 24.9954 55.077C23.9106 54.5408 23.3516 53.7982 22.7184 52.7237C22.5349 52.4329 22.407 52.1874 22.3637 52.1874L17.3477 55.2812C18.1851 57.0116 19.4102 58.5049 20.9901 59.4495C23.3434 60.8561 26.5011 61.3078 29.8093 60.5674C31.9584 59.9445 33.8167 58.6657 34.782 56.6899C36.1886 54.1324 35.8875 50.9974 35.8772 47.4829C35.9102 41.8316 35.8772 36.1824 35.8772 30.4879L35.8896 30.3353Z" />
</svg>
