<svg width="86" height="86" viewBox="0 0 86 86" fill="none" xmlns="http://www.w3.org/2000/svg" class="svgFill">
<defs>
    <style type="text/css"><![CDATA[
.svgFill{
    fill: #272727;
}
.svgFill:hover{
    fill: #EB5757;
}
    ]]></style>
  </defs>
<path d="M75.3065 64.9326L44.2605 82.4148V68.7946L63.6051 58.1977L75.3065 64.9326ZM77.435 63.0164V26.4422L66.0695 32.9782V56.4804L77.435 63.0164ZM10.484 64.9326L41.53 82.4148V68.7946L22.1853 58.1977L10.484 64.9326ZM8.35547 63.0164V26.4422L19.7209 32.9782V56.4804L8.35547 63.0164ZM9.68578 24.0746L41.53 6.14355V19.315L20.9813 30.5702L9.68578 24.0746ZM76.1047 24.0746L44.2605 6.14355V19.315L64.8091 30.5702L76.1047 24.0746ZM41.53 65.7039L22.4514 55.2469V34.5451L41.53 45.5181V65.7039ZM44.2605 65.7039L63.339 55.2469V34.5451L44.2605 45.5181V65.7039ZM23.7387 32.1532L42.9006 21.6692L62.0625 32.1532L42.9006 43.1692L23.7387 32.1532Z"/>
</svg>
